<svg xmlns="http://www.w3.org/2000/svg" xmlns:xlink="http://www.w3.org/1999/xlink" width="500" zoomAndPan="magnify" viewBox="0 0 375 374.999991" height="500" preserveAspectRatio="xMidYMid meet" version="1.0"><rect x="-37.5" width="450" fill="#ffffff" y="-37.499999" height="449.999989" fill-opacity="1"/><rect x="-37.5" width="450" fill="#ffffff" y="-37.499999" height="449.999989" fill-opacity="1"/><path fill="#0097b2" d="M 187.992188 17.914062 C 175.273438 12.652344 160.699219 18.695312 155.441406 31.414062 C 150.523438 43.296875 155.484375 56.800781 166.53125 62.8125 L 164.113281 75.632812 L 171.457031 64.847656 C 179.492188 67.214844 187.949219 65.300781 194.164062 60.265625 C 195.21875 52.605469 198.398438 45.390625 203.3125 39.4375 C 202.75 30.222656 197.097656 21.679688 187.992188 17.914062 Z M 175.792969 52.980469 L 171.847656 51.347656 L 176.515625 40.066406 L 170.214844 37.457031 L 183.109375 29.710938 L 186.761719 44.304688 L 180.460938 41.695312 Z M 175.792969 52.980469 " fill-opacity="1" fill-rule="nonzero"/><path fill="#0097b2" d="M 235.554688 107.75 C 227.984375 107.75 220.707031 105.675781 214.390625 101.964844 C 208.574219 104.21875 203.621094 108.609375 200.824219 114.5625 L 187.882812 112.902344 L 199.082031 119.601562 C 196.246094 131.855469 203.0625 144.527344 215.214844 148.734375 C 228.21875 153.234375 242.410156 146.339844 246.914062 133.335938 C 250.164062 123.9375 247.445312 113.9375 240.789062 107.40625 C 239.0625 107.625 237.316406 107.75 235.554688 107.75 Z M 220.496094 133.667969 L 222.726562 127.226562 L 211.183594 123.230469 L 212.582031 119.191406 L 224.125 123.1875 L 226.355469 116.746094 L 234.847656 129.160156 Z M 220.496094 133.667969 " fill-opacity="1" fill-rule="nonzero"/><path fill="#0097b2" d="M 244.488281 158.179688 L 212.175781 169.101562 C 202.0625 141.859375 183.472656 140.070312 177.574219 140.230469 C 177.539062 140.230469 177.5 140.222656 177.464844 140.222656 L 131.535156 140.222656 C 130.824219 140.222656 130.132812 140.3125 129.464844 140.464844 C 117.605469 142.003906 98.417969 151.300781 95.464844 177.132812 C 95.183594 179.585938 95.035156 182.175781 95.070312 184.933594 C 95.105469 188.054688 96.671875 190.960938 99.261719 192.703125 C 100.855469 193.777344 102.710938 194.328125 104.582031 194.328125 C 105.746094 194.328125 106.921875 194.113281 108.039062 193.679688 L 108.613281 193.453125 C 108.613281 193.453125 108.617188 193.449219 108.621094 193.449219 L 154.203125 175.648438 C 159.097656 173.738281 161.511719 168.222656 159.601562 163.328125 C 157.691406 158.4375 152.179688 156.019531 147.285156 157.929688 L 117.195312 169.683594 C 118.023438 168.117188 118.972656 166.789062 119.988281 165.652344 C 120.746094 164.808594 121.542969 164.070312 122.347656 163.433594 L 122.347656 164.734375 L 146.289062 155.382812 C 147.722656 154.824219 149.21875 154.542969 150.742188 154.542969 C 155.824219 154.542969 160.300781 157.601562 162.152344 162.335938 C 163.339844 165.382812 163.273438 168.710938 161.960938 171.707031 C 160.648438 174.699219 158.246094 177.007812 155.199219 178.195312 L 122.347656 191.027344 L 122.347656 227.132812 L 115.449219 346.257812 C 114.980469 354.363281 121.171875 361.3125 129.273438 361.777344 C 137.375 362.25 144.328125 356.0625 144.796875 347.957031 L 151.054688 239.90625 L 157.945312 239.90625 L 164.203125 347.957031 C 164.671875 356.0625 171.625 362.246094 179.726562 361.777344 C 187.832031 361.308594 194.023438 354.363281 193.550781 346.257812 L 186.652344 227.152344 L 186.652344 163.125 C 190.15625 166.40625 194.007812 172.425781 196.679688 183.488281 C 197.304688 186.082031 198.992188 188.296875 201.332031 189.585938 C 202.753906 190.367188 204.335938 190.765625 205.925781 190.765625 C 206.949219 190.765625 207.980469 190.601562 208.972656 190.265625 L 250.578125 176.199219 C 255.554688 174.515625 258.226562 169.117188 256.542969 164.140625 C 254.859375 159.164062 249.464844 156.488281 244.488281 158.179688 Z M 244.488281 158.179688 " fill-opacity="1" fill-rule="nonzero"/><path fill="#0097b2" d="M 154.5 133.449219 C 169.273438 133.449219 181.25 121.476562 181.25 106.703125 C 181.25 91.929688 169.273438 79.953125 154.5 79.953125 C 139.730469 79.953125 127.753906 91.929688 127.753906 106.703125 C 127.753906 121.476562 139.730469 133.449219 154.5 133.449219 Z M 157.242188 113.320312 C 164.472656 112.101562 170.664062 110.914062 171.171875 113.9375 C 171.679688 116.960938 166.234375 120.394531 159.003906 121.613281 C 151.773438 122.832031 145.5 121.371094 144.992188 118.347656 C 144.484375 115.328125 150.011719 114.539062 157.242188 113.320312 Z M 157.242188 113.320312 " fill-opacity="1" fill-rule="nonzero"/><path fill="#0097b2" d="M 220.046875 30.207031 C 201.570312 38.199219 192.421875 58.777344 198.285156 77.574219 L 181.589844 89.339844 L 201.597656 85.230469 C 211.28125 102.371094 232.539062 109.792969 251.015625 101.800781 C 270.785156 93.25 279.878906 70.289062 271.328125 50.519531 C 262.773438 30.75 239.816406 21.65625 220.046875 30.207031 Z M 241.183594 78.828125 L 236.949219 69.035156 L 219.40625 76.625 L 216.75 70.488281 L 234.292969 62.898438 L 230.058594 53.101562 L 252.988281 58.453125 Z M 241.183594 78.828125 " fill-opacity="1" fill-rule="nonzero"/></svg>