<svg xmlns="http://www.w3.org/2000/svg" xmlns:xlink="http://www.w3.org/1999/xlink" width="500" zoomAndPan="magnify" viewBox="0 0 375 374.999991" height="500" preserveAspectRatio="xMidYMid meet" version="1.0"><defs><clipPath id="2613c44778"><path d="M 142 138 L 229 138 L 229 365.625 L 142 365.625 Z M 142 138 " clip-rule="nonzero"/></clipPath><clipPath id="d16f9f6932"><path d="M 112.6875 130 L 176 130 L 176 207 L 112.6875 207 Z M 112.6875 130 " clip-rule="nonzero"/></clipPath><clipPath id="807d30b8e3"><path d="M 131 9.375 L 187 9.375 L 187 71 L 131 71 Z M 131 9.375 " clip-rule="nonzero"/></clipPath></defs><rect x="-37.5" width="450" fill="#ffffff" y="-37.499999" height="449.999989" fill-opacity="1"/><rect x="-37.5" width="450" fill="#ffffff" y="-37.499999" height="449.999989" fill-opacity="1"/><g clip-path="url(#2613c44778)"><path fill="#0097b2" d="M 177.757812 147.203125 C 178.710938 148.597656 178.980469 150.160156 178.507812 151.59375 C 170.390625 176.25 154.132812 191.613281 142.105469 200.09375 L 146.574219 228.113281 L 146.574219 351.3125 C 146.574219 359.226562 153.195312 365.640625 161.351562 365.640625 C 169.515625 365.640625 176.132812 359.226562 176.132812 351.3125 L 176.132812 238.292969 L 181.671875 237.464844 L 181.671875 351.3125 C 181.671875 359.226562 188.292969 365.640625 196.453125 365.640625 C 204.613281 365.640625 211.234375 359.226562 211.234375 351.3125 L 211.234375 227.472656 C 211.234375 227.398438 211.222656 227.328125 211.222656 227.253906 C 211.460938 226.199219 211.519531 225.085938 211.335938 223.953125 L 203.773438 176.511719 L 206.496094 176.144531 L 211.28125 206.15625 L 225.410156 187.769531 C 229.179688 184.441406 229.609375 178.796875 226.300781 174.972656 L 197.414062 141.558594 C 196.449219 140.4375 195.265625 139.609375 193.976562 139.054688 C 192.292969 138.203125 190.328125 137.835938 188.304688 138.136719 L 167.148438 141.3125 C 171.449219 142.355469 175.902344 144.492188 177.757812 147.203125 Z M 177.757812 147.203125 " fill-opacity="1" fill-rule="nonzero"/></g><g clip-path="url(#d16f9f6932)"><path fill="#0097b2" d="M 113.460938 194.730469 C 112.765625 196.789062 112.796875 199.089844 113.742188 201.242188 C 115.144531 204.425781 118.160156 206.4375 121.46875 206.804688 C 121.644531 206.824219 121.816406 206.851562 121.992188 206.863281 C 122.164062 206.875 122.332031 206.878906 122.503906 206.878906 C 122.515625 206.878906 122.53125 206.882812 122.546875 206.882812 C 123.796875 206.882812 125.066406 206.644531 126.289062 206.136719 C 126.648438 205.988281 128.96875 205.003906 132.453125 203.042969 C 143.398438 196.890625 165.925781 181.050781 175.886719 150.78125 C 176.972656 147.488281 169.011719 143.847656 163.234375 143.335938 L 166.164062 133.847656 C 166.539062 132.625 165.820312 131.328125 164.558594 130.964844 C 163.300781 130.597656 161.960938 131.296875 161.582031 132.519531 L 157.714844 145.042969 C 157.703125 145.078125 157.679688 145.109375 157.667969 145.148438 C 152.054688 162.195312 141.246094 173.601562 132.441406 180.515625 L 132.441406 177.011719 C 134.097656 175.632812 135.804688 174.082031 137.523438 172.378906 C 137.5625 172.292969 137.605469 172.210938 137.648438 172.128906 L 137.664062 172.234375 C 143.960938 165.945312 150.308594 157.421875 154.347656 146.324219 C 153.300781 146.597656 152.234375 146.820312 151.140625 146.984375 C 146.796875 147.636719 142.527344 147.324219 138.558594 146.222656 C 131.203125 149.15625 116.175781 159.460938 113.460938 194.730469 Z M 113.460938 194.730469 " fill-opacity="1" fill-rule="nonzero"/></g><path fill="#0097b2" d="M 150.738281 144.464844 C 152.339844 144.222656 153.886719 143.84375 155.367188 143.351562 L 158.949219 131.753906 C 159.59375 129.660156 161.621094 128.199219 163.875 128.199219 C 164.375 128.199219 164.867188 128.273438 165.34375 128.410156 C 167.570312 129.054688 168.984375 131.042969 168.988281 133.183594 C 172.601562 127.945312 174.28125 121.433594 173.210938 114.710938 C 170.941406 100.480469 157.203125 90.726562 142.523438 92.925781 C 127.84375 95.125 117.78125 108.445312 120.050781 122.679688 C 122.320312 136.910156 136.0625 146.664062 150.738281 144.464844 Z M 157.09375 107.785156 C 159.414062 107.785156 161.292969 109.667969 161.292969 111.988281 C 161.292969 114.308594 159.414062 116.1875 157.09375 116.1875 C 154.773438 116.1875 152.890625 114.308594 152.890625 111.988281 C 152.890625 109.667969 154.773438 107.785156 157.09375 107.785156 Z M 138.597656 119.136719 C 138.597656 116.816406 140.480469 114.933594 142.800781 114.933594 C 145.121094 114.933594 147 116.816406 147 119.136719 C 147 121.453125 145.121094 123.335938 142.800781 123.335938 C 140.480469 123.335938 138.597656 121.453125 138.597656 119.136719 Z M 138.597656 119.136719 " fill-opacity="1" fill-rule="nonzero"/><g clip-path="url(#807d30b8e3)"><path fill="#0097b2" d="M 154.4375 65.941406 C 154.976562 68.328125 157.101562 70.113281 159.648438 70.113281 C 162.195312 70.113281 164.320312 68.328125 164.859375 65.941406 C 170.710938 64.863281 175.929688 61.996094 179.945312 57.929688 C 178.355469 47.769531 180.660156 37.230469 186.605469 28.570312 C 182.738281 17.398438 172.136719 9.375 159.648438 9.375 C 143.894531 9.375 131.125 22.144531 131.125 37.898438 C 131.125 51.875 141.171875 63.492188 154.4375 65.941406 Z M 156.992188 40.359375 L 156.992188 24.761719 L 162.308594 24.761719 L 162.308594 40.359375 L 169.875 40.359375 L 159.648438 53.644531 L 149.421875 40.359375 Z M 156.992188 40.359375 " fill-opacity="1" fill-rule="nonzero"/></g><path fill="#0097b2" d="M 162.902344 76.113281 C 162.902344 76.546875 162.820312 76.960938 162.65625 77.359375 C 162.488281 77.757812 162.253906 78.109375 161.949219 78.414062 C 161.644531 78.722656 161.292969 78.957031 160.894531 79.121094 C 160.496094 79.285156 160.082031 79.367188 159.648438 79.367188 C 159.21875 79.367188 158.800781 79.285156 158.402344 79.121094 C 158.003906 78.957031 157.652344 78.722656 157.347656 78.414062 C 157.042969 78.109375 156.808594 77.757812 156.640625 77.359375 C 156.476562 76.960938 156.394531 76.546875 156.394531 76.113281 C 156.394531 75.683594 156.476562 75.269531 156.640625 74.871094 C 156.808594 74.472656 157.042969 74.117188 157.347656 73.8125 C 157.652344 73.507812 158.003906 73.273438 158.402344 73.109375 C 158.800781 72.941406 159.21875 72.859375 159.648438 72.859375 C 160.082031 72.859375 160.496094 72.941406 160.894531 73.109375 C 161.292969 73.273438 161.644531 73.507812 161.949219 73.8125 C 162.253906 74.117188 162.488281 74.472656 162.65625 74.871094 C 162.820312 75.269531 162.902344 75.683594 162.902344 76.113281 Z M 162.902344 76.113281 " fill-opacity="1" fill-rule="nonzero"/><path fill="#0097b2" d="M 161.847656 84.605469 C 161.847656 84.894531 161.792969 85.175781 161.679688 85.445312 C 161.566406 85.714844 161.410156 85.953125 161.203125 86.160156 C 160.996094 86.363281 160.757812 86.523438 160.488281 86.636719 C 160.21875 86.746094 159.941406 86.800781 159.648438 86.800781 C 159.355469 86.800781 159.078125 86.746094 158.808594 86.636719 C 158.539062 86.523438 158.300781 86.363281 158.09375 86.160156 C 157.886719 85.953125 157.730469 85.714844 157.617188 85.445312 C 157.507812 85.175781 157.449219 84.894531 157.449219 84.605469 C 157.449219 84.3125 157.507812 84.03125 157.617188 83.761719 C 157.730469 83.492188 157.886719 83.253906 158.09375 83.050781 C 158.300781 82.84375 158.539062 82.683594 158.808594 82.574219 C 159.078125 82.460938 159.355469 82.40625 159.648438 82.40625 C 159.941406 82.40625 160.21875 82.460938 160.488281 82.574219 C 160.757812 82.683594 160.996094 82.84375 161.203125 83.050781 C 161.410156 83.253906 161.566406 83.492188 161.679688 83.761719 C 161.792969 84.03125 161.847656 84.3125 161.847656 84.605469 Z M 161.847656 84.605469 " fill-opacity="1" fill-rule="nonzero"/><path fill="#0097b2" d="M 206.746094 90.097656 C 202.914062 95.101562 200.730469 101.339844 200.839844 107.902344 C 198.609375 108.902344 197.277344 111.339844 197.785156 113.835938 C 198.289062 116.335938 200.457031 118.0625 202.902344 118.117188 C 207.933594 130.632812 221.3125 138.183594 235.007812 135.417969 C 250.449219 132.296875 260.4375 117.25 257.320312 101.808594 C 255.769531 94.140625 251.28125 87.820312 245.261719 83.78125 C 234.226562 92.390625 219.660156 94.628906 206.746094 90.097656 Z M 226.421875 105.339844 L 241.710938 102.25 L 242.765625 107.460938 L 227.472656 110.550781 L 228.972656 117.96875 L 213.925781 110.574219 L 224.921875 97.917969 Z M 226.421875 105.339844 " fill-opacity="1" fill-rule="nonzero"/><path fill="#0097b2" d="M 195.085938 114.386719 C 195.171875 114.808594 195.171875 115.230469 195.089844 115.65625 C 195.007812 116.078125 194.847656 116.46875 194.609375 116.828125 C 194.371094 117.1875 194.070312 117.488281 193.710938 117.730469 C 193.355469 117.972656 192.964844 118.132812 192.542969 118.21875 C 192.117188 118.304688 191.695312 118.304688 191.269531 118.222656 C 190.847656 118.140625 190.457031 117.980469 190.097656 117.742188 C 189.738281 117.503906 189.4375 117.203125 189.195312 116.847656 C 188.957031 116.488281 188.792969 116.097656 188.707031 115.675781 C 188.621094 115.25 188.621094 114.828125 188.703125 114.40625 C 188.785156 113.980469 188.945312 113.589844 189.1875 113.230469 C 189.425781 112.871094 189.722656 112.570312 190.082031 112.328125 C 190.4375 112.089844 190.828125 111.925781 191.253906 111.839844 C 191.675781 111.753906 192.097656 111.753906 192.523438 111.835938 C 192.945312 111.917969 193.335938 112.078125 193.695312 112.320312 C 194.054688 112.558594 194.355469 112.855469 194.597656 113.214844 C 194.839844 113.570312 195 113.960938 195.085938 114.386719 Z M 195.085938 114.386719 " fill-opacity="1" fill-rule="nonzero"/><path fill="#0097b2" d="M 185.730469 116.277344 C 185.789062 116.5625 185.789062 116.847656 185.734375 117.132812 C 185.675781 117.417969 185.570312 117.683594 185.40625 117.925781 C 185.246094 118.167969 185.042969 118.371094 184.800781 118.535156 C 184.5625 118.699219 184.296875 118.808594 184.011719 118.867188 C 183.726562 118.921875 183.4375 118.925781 183.152344 118.867188 C 182.867188 118.8125 182.601562 118.703125 182.359375 118.542969 C 182.117188 118.382812 181.914062 118.179688 181.75 117.9375 C 181.589844 117.695312 181.476562 117.433594 181.421875 117.144531 C 181.363281 116.859375 181.363281 116.574219 181.417969 116.289062 C 181.472656 116.003906 181.582031 115.738281 181.742188 115.496094 C 181.90625 115.253906 182.105469 115.050781 182.347656 114.886719 C 182.589844 114.722656 182.855469 114.613281 183.140625 114.554688 C 183.425781 114.5 183.710938 114.496094 184 114.554688 C 184.285156 114.609375 184.546875 114.71875 184.792969 114.878906 C 185.035156 115.039062 185.238281 115.242188 185.398438 115.484375 C 185.5625 115.726562 185.671875 115.988281 185.730469 116.277344 Z M 185.730469 116.277344 " fill-opacity="1" fill-rule="nonzero"/><path fill="#0097b2" d="M 188.46875 72.667969 C 186.679688 75.402344 186.9375 79.097656 189.304688 81.542969 C 191.667969 83.988281 195.355469 84.371094 198.148438 82.671875 C 212.816406 93.125 233.304688 91.980469 246.714844 79.003906 C 261.839844 64.371094 262.234375 40.253906 247.601562 25.128906 C 232.96875 10.007812 208.851562 9.613281 193.730469 24.246094 C 180.316406 37.222656 178.5 57.660156 188.46875 72.667969 Z M 208.359375 44.09375 L 215.390625 51.359375 L 230.363281 36.871094 L 235.300781 41.972656 L 220.328125 56.460938 L 227.359375 63.726562 L 205.113281 66.246094 Z M 208.359375 44.09375 " fill-opacity="1" fill-rule="nonzero"/><path fill="#0097b2" d="M 186.664062 84.09375 C 186.863281 84.296875 187.039062 84.519531 187.191406 84.761719 C 187.347656 85 187.476562 85.253906 187.582031 85.519531 C 187.6875 85.785156 187.765625 86.058594 187.816406 86.335938 C 187.867188 86.617188 187.890625 86.902344 187.886719 87.1875 C 187.878906 87.472656 187.847656 87.753906 187.789062 88.03125 C 187.726562 88.3125 187.640625 88.582031 187.527344 88.84375 C 187.414062 89.105469 187.277344 89.355469 187.113281 89.589844 C 186.953125 89.824219 186.765625 90.039062 186.5625 90.238281 C 186.355469 90.4375 186.136719 90.613281 185.894531 90.769531 C 185.65625 90.921875 185.402344 91.050781 185.136719 91.15625 C 184.871094 91.261719 184.597656 91.339844 184.316406 91.390625 C 184.039062 91.441406 183.753906 91.464844 183.46875 91.460938 C 183.183594 91.457031 182.902344 91.421875 182.621094 91.363281 C 182.34375 91.304688 182.074219 91.214844 181.8125 91.101562 C 181.550781 90.988281 181.300781 90.851562 181.066406 90.6875 C 180.832031 90.527344 180.617188 90.34375 180.417969 90.136719 C 180.21875 89.933594 180.042969 89.710938 179.886719 89.46875 C 179.734375 89.230469 179.601562 88.976562 179.5 88.710938 C 179.394531 88.445312 179.316406 88.175781 179.265625 87.894531 C 179.214844 87.613281 179.191406 87.328125 179.195312 87.042969 C 179.199219 86.757812 179.230469 86.476562 179.292969 86.199219 C 179.351562 85.917969 179.4375 85.648438 179.554688 85.386719 C 179.667969 85.125 179.804688 84.875 179.964844 84.640625 C 180.128906 84.40625 180.3125 84.191406 180.519531 83.992188 C 180.722656 83.792969 180.945312 83.617188 181.183594 83.460938 C 181.425781 83.308594 181.675781 83.179688 181.941406 83.074219 C 182.207031 82.96875 182.480469 82.890625 182.761719 82.839844 C 183.042969 82.789062 183.324219 82.765625 183.613281 82.769531 C 183.898438 82.773438 184.179688 82.808594 184.457031 82.867188 C 184.738281 82.929688 185.007812 83.015625 185.269531 83.128906 C 185.53125 83.242188 185.777344 83.378906 186.011719 83.542969 C 186.25 83.703125 186.464844 83.886719 186.664062 84.09375 Z M 186.664062 84.09375 " fill-opacity="1" fill-rule="nonzero"/><path fill="#0097b2" d="M 177.503906 92.957031 C 177.773438 93.238281 177.980469 93.558594 178.125 93.917969 C 178.265625 94.28125 178.335938 94.65625 178.328125 95.046875 C 178.320312 95.4375 178.242188 95.808594 178.085938 96.167969 C 177.933594 96.523438 177.714844 96.835938 177.433594 97.109375 C 177.15625 97.378906 176.835938 97.585938 176.472656 97.730469 C 176.109375 97.871094 175.734375 97.941406 175.34375 97.933594 C 174.957031 97.925781 174.582031 97.847656 174.226562 97.691406 C 173.867188 97.535156 173.554688 97.320312 173.285156 97.039062 C 173.011719 96.761719 172.804688 96.4375 172.664062 96.078125 C 172.519531 95.714844 172.453125 95.339844 172.457031 94.949219 C 172.464844 94.5625 172.546875 94.1875 172.699219 93.832031 C 172.855469 93.472656 173.074219 93.160156 173.351562 92.890625 C 173.632812 92.617188 173.953125 92.410156 174.316406 92.269531 C 174.675781 92.125 175.050781 92.058594 175.441406 92.0625 C 175.832031 92.070312 176.203125 92.148438 176.5625 92.304688 C 176.917969 92.460938 177.230469 92.675781 177.503906 92.957031 Z M 177.503906 92.957031 " fill-opacity="1" fill-rule="nonzero"/></svg>